<svg id="Component_1_1" data-name="Component 1 – 1" xmlns="http://www.w3.org/2000/svg" xmlns:xlink="http://www.w3.org/1999/xlink" width="396.831" height="40.81" viewBox="0 0 396.831 40.81">
  <defs>
    <clipPath id="clip-path">
      <rect id="Rectangle_1" data-name="Rectangle 1" width="396.831" height="40.81" fill="none"/>
    </clipPath>
  </defs>
  <g id="Mask_Group_1" data-name="Mask Group 1" clip-path="url(#clip-path)">
    <path id="Path_1" data-name="Path 1" d="M27.994,1.459a20.4,20.4,0,1,0,0,37.892Z" transform="translate(0 0)" fill="#3fa9f5"/>
    <path id="Path_2" data-name="Path 2" d="M61.259,1.459a20.4,20.4,0,1,0,0,37.892Z" transform="translate(-14.58 0)" fill="#7ac943"/>
    <path id="Path_3" data-name="Path 3" d="M128.263,13.635a1.278,1.278,0,0,1-1.211-.861,8.376,8.376,0,0,0-1.09-2.117,9.9,9.9,0,0,0-2.441-2.408,11.969,11.969,0,0,0-3.368-1.611,13.82,13.82,0,0,0-4.084-.586,15,15,0,0,0-5.614,1.009,11.4,11.4,0,0,0-4.3,2.978,13.457,13.457,0,0,0-2.733,4.914,22.122,22.122,0,0,0-.961,6.85,22.432,22.432,0,0,0,.961,6.883,13.913,13.913,0,0,0,2.733,5,11.506,11.506,0,0,0,4.263,3.059,14.236,14.236,0,0,0,5.549,1.041,13.109,13.109,0,0,0,7.615-2.065,8.674,8.674,0,0,0,3.5-5.1,1.276,1.276,0,0,1,1.237-.938h.075a1.284,1.284,0,0,1,1.254,1.6,11.788,11.788,0,0,1-4.279,6.306,13.352,13.352,0,0,1-4.2,2.083,17.759,17.759,0,0,1-5.141.716,16.75,16.75,0,0,1-6.785-1.318,14.429,14.429,0,0,1-5.126-3.726,16.677,16.677,0,0,1-3.254-5.841,24.355,24.355,0,0,1-1.139-7.7,23.79,23.79,0,0,1,1.139-7.615,16.428,16.428,0,0,1,3.27-5.776,14.332,14.332,0,0,1,5.142-3.678,17.037,17.037,0,0,1,6.752-1.285,15.9,15.9,0,0,1,4.9.748,14.722,14.722,0,0,1,4.182,2.1,12.952,12.952,0,0,1,3.124,3.222,11.607,11.607,0,0,1,1.232,2.354A1.3,1.3,0,0,1,128.263,13.635Z" transform="translate(-43.712 -1.512)" fill="#fff"/>
    <path id="Path_4" data-name="Path 4" d="M181.442,3.449a17.194,17.194,0,0,1,6.736,1.3,15.2,15.2,0,0,1,5.321,3.71,17.209,17.209,0,0,1,3.482,5.792,21.63,21.63,0,0,1,1.253,7.55A22.053,22.053,0,0,1,197,29.352a17.491,17.491,0,0,1-3.466,5.874,15.479,15.479,0,0,1-5.3,3.807,17.762,17.762,0,0,1-13.586,0,15.536,15.536,0,0,1-5.321-3.791,17.293,17.293,0,0,1-3.466-5.858,22.142,22.142,0,0,1-1.236-7.582,21.716,21.716,0,0,1,1.253-7.583,16.883,16.883,0,0,1,3.5-5.776,15.492,15.492,0,0,1,5.321-3.693,17.154,17.154,0,0,1,6.752-1.3m-.033,34.331a14.78,14.78,0,0,0,5.646-1.057,12.363,12.363,0,0,0,4.475-3.108,14.276,14.276,0,0,0,2.929-5.028A20.485,20.485,0,0,0,195.5,21.8a19.894,19.894,0,0,0-1.058-6.769,14.139,14.139,0,0,0-2.929-4.93,12.216,12.216,0,0,0-4.426-3.027,14.845,14.845,0,0,0-5.581-1.025,15.067,15.067,0,0,0-5.678,1.041,12.48,12.48,0,0,0-4.475,3.042,14.006,14.006,0,0,0-2.945,4.931,19.765,19.765,0,0,0-1.058,6.736,20.471,20.471,0,0,0,1.041,6.784,14.392,14.392,0,0,0,2.912,5.028,12.209,12.209,0,0,0,4.458,3.108,14.779,14.779,0,0,0,5.646,1.057" transform="translate(-72.15 -1.512)" fill="#fff"/>
    <path id="Path_5" data-name="Path 5" d="M266.554,22.173q0,18.093-18,18.093h-8.377a2.4,2.4,0,0,1-2.395-2.395V7.06a2.4,2.4,0,0,1,2.395-2.395h8.377q9.014,0,13.5,4.344t4.491,13.163m-2.766,0a25.7,25.7,0,0,0-.7-6.281,10.811,10.811,0,0,0-2.457-4.7,11.023,11.023,0,0,0-4.7-2.945,23.276,23.276,0,0,0-7.436-1.009h-5.709a2.394,2.394,0,0,0-2.394,2.395V35.268a2.394,2.394,0,0,0,2.394,2.395h5.709a22.462,22.462,0,0,0,7.4-1.041,10.965,10.965,0,0,0,4.7-3.042,11.448,11.448,0,0,0,2.473-4.865,27.088,27.088,0,0,0,.716-6.541" transform="translate(-104.219 -2.045)" fill="#fff"/>
    <path id="Path_6" data-name="Path 6" d="M327.344,40.241H304.206a1.3,1.3,0,0,1-1.3-1.3V5.909a1.3,1.3,0,0,1,1.3-1.3h22.258a1.3,1.3,0,1,1,0,2.6H306.81a1.3,1.3,0,0,0-1.3,1.3V19.089a1.3,1.3,0,0,0,1.3,1.3h18.256a1.3,1.3,0,0,1,0,2.6H306.81a1.3,1.3,0,0,0-1.3,1.3v12.04a1.3,1.3,0,0,0,1.3,1.3h20.533a1.3,1.3,0,0,1,1.3,1.3h0a1.3,1.3,0,0,1-1.3,1.3" transform="translate(-132.759 -2.02)" fill="#fff"/>
    <path id="Path_7" data-name="Path 7" d="M388.44,13.635a1.278,1.278,0,0,1-1.211-.861,8.376,8.376,0,0,0-1.09-2.117A9.909,9.909,0,0,0,383.7,8.249a11.973,11.973,0,0,0-3.367-1.611,13.828,13.828,0,0,0-4.085-.586,15,15,0,0,0-5.614,1.009,11.4,11.4,0,0,0-4.295,2.978,13.466,13.466,0,0,0-2.733,4.914,22.14,22.14,0,0,0-.96,6.85,22.451,22.451,0,0,0,.96,6.883,13.922,13.922,0,0,0,2.733,5,11.51,11.51,0,0,0,4.263,3.059,14.236,14.236,0,0,0,5.549,1.041,13.109,13.109,0,0,0,7.615-2.065,8.679,8.679,0,0,0,3.5-5.1,1.276,1.276,0,0,1,1.237-.938h.076a1.283,1.283,0,0,1,1.254,1.6,11.776,11.776,0,0,1-4.278,6.306,13.361,13.361,0,0,1-4.2,2.083,17.762,17.762,0,0,1-5.141.716,16.747,16.747,0,0,1-6.785-1.318A14.429,14.429,0,0,1,364.3,35.34a16.677,16.677,0,0,1-3.254-5.841,24.339,24.339,0,0,1-1.139-7.7,23.775,23.775,0,0,1,1.139-7.615,16.419,16.419,0,0,1,3.27-5.776,14.337,14.337,0,0,1,5.142-3.678,17.035,17.035,0,0,1,6.752-1.285,15.9,15.9,0,0,1,4.9.748,14.71,14.71,0,0,1,4.181,2.1,12.959,12.959,0,0,1,3.124,3.222,11.565,11.565,0,0,1,1.232,2.354,1.3,1.3,0,0,1-1.208,1.762" transform="translate(-157.743 -1.512)" fill="#3fa9f5"/>
    <path id="Path_8" data-name="Path 8" d="M441.618,3.449a17.194,17.194,0,0,1,6.736,1.3,15.212,15.212,0,0,1,5.321,3.71,17.218,17.218,0,0,1,3.482,5.792,21.63,21.63,0,0,1,1.252,7.55,22.066,22.066,0,0,1-1.236,7.549,17.5,17.5,0,0,1-3.466,5.874,15.5,15.5,0,0,1-5.3,3.807,17.763,17.763,0,0,1-13.587,0,15.541,15.541,0,0,1-5.321-3.791,17.3,17.3,0,0,1-3.465-5.858,22.129,22.129,0,0,1-1.237-7.582,21.7,21.7,0,0,1,1.253-7.583,16.883,16.883,0,0,1,3.5-5.776,15.5,15.5,0,0,1,5.321-3.693,17.157,17.157,0,0,1,6.753-1.3m-.033,34.331a14.783,14.783,0,0,0,5.646-1.057,12.366,12.366,0,0,0,4.474-3.108,14.267,14.267,0,0,0,2.929-5.028,20.5,20.5,0,0,0,1.042-6.784,19.894,19.894,0,0,0-1.058-6.769,14.131,14.131,0,0,0-2.929-4.93,12.216,12.216,0,0,0-4.426-3.027,14.844,14.844,0,0,0-5.58-1.025A15.07,15.07,0,0,0,436,7.094a12.49,12.49,0,0,0-4.475,3.042,14.015,14.015,0,0,0-2.945,4.931,19.765,19.765,0,0,0-1.057,6.736,20.486,20.486,0,0,0,1.041,6.784,14.392,14.392,0,0,0,2.912,5.028,12.219,12.219,0,0,0,4.458,3.108,14.78,14.78,0,0,0,5.646,1.057" transform="translate(-186.181 -1.512)" fill="#3fa9f5"/>
    <path id="Path_9" data-name="Path 9" d="M517.883,40.241H499.5a1.3,1.3,0,0,1-1.3-1.3V5.909a1.3,1.3,0,0,1,2.6,0V36.335a1.3,1.3,0,0,0,1.3,1.3h15.782a1.3,1.3,0,1,1,0,2.6" transform="translate(-218.352 -2.02)" fill="#3fa9f5"/>
    <path id="Path_10" data-name="Path 10" d="M626.169,30.251a8.876,8.876,0,0,1-3.27,7.42q-3.271,2.57-9.616,2.57H601.448a1.117,1.117,0,0,1-1.117-1.117V5.725a1.117,1.117,0,0,1,1.117-1.117h11.77q5.37,0,8.217,2.033t2.847,6.492a14.058,14.058,0,0,1-.244,2.555,7.765,7.765,0,0,1-.895,2.456,7.026,7.026,0,0,1-1.79,2.035l-.022.017a1.117,1.117,0,0,0,.217,1.936,6.7,6.7,0,0,1,.9.421,6.816,6.816,0,0,1,2.343,2.1,7.2,7.2,0,0,1,1.107,2.718,15.737,15.737,0,0,1,.276,2.88M602.935,19.143a1.117,1.117,0,0,0,1.117,1.117h8.45q4.75,0,7-1.529t2.246-5.142a5.677,5.677,0,0,0-2.083-4.832q-2.083-1.578-6.671-1.578l-8.942.029a1.116,1.116,0,0,0-1.113,1.117Zm0,17.377a1.117,1.117,0,0,0,1.117,1.117h9.2q10.087,0,10.087-7.387a9.534,9.534,0,0,0-.52-3.319,4.856,4.856,0,0,0-1.774-2.295,8.842,8.842,0,0,0-3.319-1.334,25.594,25.594,0,0,0-5.191-.439h-8.483a1.117,1.117,0,0,0-1.117,1.117Z" transform="translate(-263.117 -2.02)" fill="#3fa9f5"/>
    <path id="Path_11" data-name="Path 11" d="M672.205,40.384a23.331,23.331,0,0,1-6.314-.764,13.3,13.3,0,0,1-4.539-2.181,9.575,9.575,0,0,1-2.815-3.417,11.311,11.311,0,0,1-.966-3.04,1.269,1.269,0,0,1,1.26-1.467h.1a1.262,1.262,0,0,1,1.229.962,9.209,9.209,0,0,0,1.273,3.041,8.317,8.317,0,0,0,2.652,2.538,11.031,11.031,0,0,0,3.6,1.334,22.61,22.61,0,0,0,4.3.39,16.733,16.733,0,0,0,4.279-.5,9.979,9.979,0,0,0,3.255-1.464,6.654,6.654,0,0,0,2.067-2.31,6.4,6.4,0,0,0,.715-3.043,6.627,6.627,0,0,0-.617-3.01,5.5,5.5,0,0,0-2.083-2.132,16.149,16.149,0,0,0-3.856-1.627q-2.391-.715-5.939-1.464a32.355,32.355,0,0,1-5.028-1.5A13.221,13.221,0,0,1,661.3,18.76a7.078,7.078,0,0,1-2.018-2.57,8.152,8.152,0,0,1-.65-3.369,8.267,8.267,0,0,1,.879-3.807A8.675,8.675,0,0,1,662,6.053a11.978,11.978,0,0,1,3.872-1.92,17.229,17.229,0,0,1,5-.684,18.64,18.64,0,0,1,5.011.635,12.839,12.839,0,0,1,3.987,1.838,9.874,9.874,0,0,1,2.766,2.929,9.461,9.461,0,0,1,1,2.256,1.272,1.272,0,0,1-2.413.806,8.682,8.682,0,0,0-.915-1.826,7.835,7.835,0,0,0-2.1-2.131,10.187,10.187,0,0,0-3.059-1.4,14.833,14.833,0,0,0-4.052-.5q-4.783,0-7.24,1.757a5.6,5.6,0,0,0-2.458,4.816,6.034,6.034,0,0,0,.456,2.441,4.789,4.789,0,0,0,1.546,1.872,10.638,10.638,0,0,0,2.88,1.464,34.611,34.611,0,0,0,4.458,1.187q1.561.325,3.221.684t3.238.846a19.883,19.883,0,0,1,3.01,1.2,9.709,9.709,0,0,1,2.489,1.758,7.89,7.89,0,0,1,1.692,2.49A8.5,8.5,0,0,1,685.027,30a9.159,9.159,0,0,1-.959,4.182,9.985,9.985,0,0,1-2.669,3.287,12.543,12.543,0,0,1-4.067,2.148,16.57,16.57,0,0,1-5.126.764" transform="translate(-288.196 -1.512)" fill="#3fa9f5"/>
    <path id="Path_12" data-name="Path 12" d="M532.811,39.551,562.7,39.8a1.238,1.238,0,0,0,1.021-1.763L550.867,7.022a1.519,1.519,0,0,0-2.883.038L536.527,36.49" transform="translate(-233.523 -2.63)" fill="none" stroke="#3fa9f5" stroke-miterlimit="10" stroke-width="3.45"/>
  </g>
</svg>
