<svg xmlns="http://www.w3.org/2000/svg" width="282.888" height="43.831" viewBox="0 0 282.888 43.831">
  <g id="Logo" transform="translate(0 0)">
    <g id="Group_152" data-name="Group 152" transform="translate(-1557.813 -612.085)">
      <path id="Path_472" data-name="Path 472" d="M0,39.974V53.6a4.8,4.8,0,0,0,6.368,4.53l10.227-3.549a4.8,4.8,0,0,0,3.223-4.53V43.419a4.8,4.8,0,0,0-3.265-4.545L6.326,35.429A4.8,4.8,0,0,0,0,39.974Z" transform="translate(1557.813 587.215)" fill="#a4d42f"/>
      <path id="Path_473" data-name="Path 473" d="M33.825,25.076V45.366a6.375,6.375,0,0,0,9.108,5.76l8.876-4.211a6.376,6.376,0,0,0,3.643-5.76V29.164a6.375,6.375,0,0,0-3.709-5.791l-8.876-4.088A6.376,6.376,0,0,0,33.825,25.076Z" transform="translate(1533.897 598.779)" fill="#f889ff"/>
      <path id="Path_474" data-name="Path 474" d="M70.737,8.317v27.2A8.307,8.307,0,0,0,82.8,42.921L93.295,37.6a8.306,8.306,0,0,0,4.548-7.407v-16.7a8.306,8.306,0,0,0-4.636-7.452L82.714.865A8.306,8.306,0,0,0,70.737,8.317Z" transform="translate(1510.822 612.085)" fill="#1ab1f9"/>
    </g>
    <g id="Group_151" data-name="Group 151" transform="translate(6.888 -0.09)">
      <path id="Path_475" data-name="Path 475" d="M185.609,56.617a.894.894,0,0,1-.9-.9V31.39a.926.926,0,0,1,.262-.673.853.853,0,0,1,.633-.263h10.017a13.033,13.033,0,0,1,5.082.914,7.284,7.284,0,0,1,3.365,2.763,8.349,8.349,0,0,1,1.2,4.614,8.27,8.27,0,0,1-1.2,4.618,7.222,7.222,0,0,1-3.365,2.709,13.25,13.25,0,0,1-5.082.9h-1.688a3.881,3.881,0,0,0-3.881,3.881v4.869a.891.891,0,0,1-.243.633.855.855,0,0,1-.656.262h-3.549Zm4.375-17.671a3.881,3.881,0,0,0,3.881,3.881h1.577a4.873,4.873,0,0,0,1.419-.114,3.858,3.858,0,0,0,3.076-3.719c0-.081,0-.162-.01-.243a4.18,4.18,0,0,0-.59-2.349,3.406,3.406,0,0,0-1.118-1.133,4.506,4.506,0,0,0-2.663-.674c-.073,0-.146.008-.22.008h-1.471a3.881,3.881,0,0,0-3.881,3.881Z" transform="translate(-130.602 -21.53)" fill="#e3e8ea"/>
      <path id="Path_476" data-name="Path 476" d="M285.974,41.615a.945.945,0,0,0-.673-.243H270.839a2.057,2.057,0,1,0,0,4.113H285.3a.948.948,0,0,0,.673-.243.854.854,0,0,0,.262-.656V42.266a.851.851,0,0,0-.261-.652m.822-10.894a.9.9,0,0,0-.673-.262H269.678a.855.855,0,0,0-.634.262.9.9,0,0,0-.262.673V32.7a2.057,2.057,0,0,0,2.057,2.057h15.283a.914.914,0,0,0,.673-.262.867.867,0,0,0,.262-.634V31.391a.91.91,0,0,0-.262-.673Zm.3,21.864a.911.911,0,0,0-.673-.262H270.839a2.057,2.057,0,0,0-2.057,2.057v1.345a.857.857,0,0,0,.262.638.867.867,0,0,0,.634.262h16.746a.911.911,0,0,0,.673-.262.871.871,0,0,0,.262-.638V53.258a.924.924,0,0,0-.262-.673" transform="translate(-190.043 -21.536)" fill="#e3e8ea"/>
      <path id="Path_477" data-name="Path 477" d="M392.132,31.244a.8.8,0,0,1-.151.446L387.116,38.9a3.627,3.627,0,0,1-5.936.112l5.379-7.849a1.732,1.732,0,0,1,.427-.483,1.126,1.126,0,0,1,.73-.224h3.626a.768.768,0,0,1,.785.751c0,.011,0,.023,0,.034Z" transform="translate(-269.514 -21.535)" fill="#a4d42f"/>
      <path id="Path_478" data-name="Path 478" d="M353.336,38.97h0a3.713,3.713,0,0,1-6.084-.091l-4.872-7.192a.952.952,0,0,1-.115-.446.768.768,0,0,1,.785-.785h3.814a1.037,1.037,0,0,1,.707.225,2.629,2.629,0,0,1,.449.483l5.31,7.805Z" transform="translate(-241.998 -21.533)" fill="#a4d42f"/>
      <path id="Path_479" data-name="Path 479" d="M363.913,86.8a.732.732,0,0,1-.243.56.79.79,0,0,1-.542.224h-3.962a1.073,1.073,0,0,1-.711-.224,2.268,2.268,0,0,1-.409-.449l-1.318-1.862a5.659,5.659,0,0,0-9.266.042l-1.264,1.82a2.181,2.181,0,0,1-.413.449,1.122,1.122,0,0,1-.745.224h-3.777a.774.774,0,0,1-.748-1.009c.026-.074.052-.151.078-.225l7.043-9.752a5.659,5.659,0,0,1,9.2.028l6.934,9.724a.921.921,0,0,1,.114.224.674.674,0,0,1,.037.225Z" transform="translate(-240.736 -52.503)" fill="#e3e8ea"/>
      <path id="Path_480" data-name="Path 480" d="M450.9,52.585a.928.928,0,0,0-.673-.262H434.644a2.057,2.057,0,0,0-2.057,2.057v1.345a.894.894,0,0,0,.888.9h16.753a.926.926,0,0,0,.673-.262.871.871,0,0,0,.262-.637V53.258a.926.926,0,0,0-.262-.673Zm-.3-21.864a.9.9,0,0,0-.673-.261H433.487a.863.863,0,0,0-.638.261.913.913,0,0,0-.262.673V32.7a2.057,2.057,0,0,0,2.057,2.057H449.93a.908.908,0,0,0,.673-.262.852.852,0,0,0,.262-.633V31.392a.9.9,0,0,0-.262-.673Zm-.822,10.894a.943.943,0,0,0-.673-.243H434.644a2.057,2.057,0,1,0,0,4.113h14.464a.946.946,0,0,0,.673-.243.842.842,0,0,0,.262-.656V42.267A.843.843,0,0,0,449.779,41.615Z" transform="translate(-305.861 -21.536)" fill="#e3e8ea"/>
      <path id="Path_481" data-name="Path 481" d="M512.85,56.624a.894.894,0,0,1-.9-.892V31.356a.894.894,0,0,1,.9-.9h3.475a.893.893,0,0,1,.9.9V42.839a9.336,9.336,0,0,0,9.335,9.336h2.513a.925.925,0,0,1,.673.262.914.914,0,0,1,.262.673v2.616a.864.864,0,0,1-.262.634.915.915,0,0,1-.673.262H512.85Z" transform="translate(-361.978 -21.537)" fill="#e3e8ea"/>
      <path id="Path_482" data-name="Path 482" d="M611.12,56.625a1.189,1.189,0,0,1-.877-.317,1.62,1.62,0,0,1-.432-.8L605.36,31.545a.92.92,0,0,0-.018-.188.389.389,0,0,1-.018-.11.725.725,0,0,1,.243-.56.774.774,0,0,1,.545-.226H609.4c.623,0,.973.253,1.047.748l3.1,16.93,3.365-10.949a1.976,1.976,0,0,1,.395-.616,1.07,1.07,0,0,1,.841-.317h2.018a1.057,1.057,0,0,1,.859.317,1.6,1.6,0,0,1,.336.616l3.4,10.912,3.1-16.893c.073-.5.423-.748,1.05-.748H632.2a.716.716,0,0,1,.524.225.757.757,0,0,1,.224.56v.11a.715.715,0,0,1-.037.187L628.46,55.5a1.356,1.356,0,0,1-.413.8,1.245,1.245,0,0,1-.9.317h-2.5a1.227,1.227,0,0,1-.877-.3,1.581,1.581,0,0,1-.432-.633l-4.183-12.482L614.971,55.69a2.106,2.106,0,0,1-.449.634,1.215,1.215,0,0,1-.895.3h-2.5Z" transform="translate(-427.994 -21.537)" fill="#e3e8ea"/>
      <path id="Path_483" data-name="Path 483" d="M727.618,55.836a1.6,1.6,0,0,0-.114-.539l-8.93-23.9a1.832,1.832,0,0,0-.449-.652,1.2,1.2,0,0,0-.859-.28h-4.073a1.272,1.272,0,0,0-.877.277,1.375,1.375,0,0,0-.431.652l-9.01,24.1a.951.951,0,0,0-.074.337.731.731,0,0,0,.243.56.774.774,0,0,0,.542.224v0h3.251a1.047,1.047,0,0,0,.766-.243,1.25,1.25,0,0,0,.317-.468l1.758-4.559h0v0l3.79-10.856a1.851,1.851,0,0,1,3.494,0l3.816,10.86v0l1.758,4.559a1.211,1.211,0,0,0,.317.468,1.047,1.047,0,0,0,.767.243h3.251a.714.714,0,0,0,.523-.225.749.749,0,0,0,.225-.56v0" transform="translate(-496.916 -21.539)" fill="#e3e8ea"/>
      <path id="Path_484" data-name="Path 484" d="M795.862,56.618a1.367,1.367,0,0,1-.936-.3,1.7,1.7,0,0,1-.486-.748l-8-24a.882.882,0,0,1-.074-.336.768.768,0,0,1,.752-.784h3.318a1.082,1.082,0,0,1,.8.28,1.282,1.282,0,0,1,.354.542l5.289,16.118a1.081,1.081,0,0,0,2.054,0l5.289-16.118a1.323,1.323,0,0,1,.353-.542,1.085,1.085,0,0,1,.806-.28h3.287a.774.774,0,0,1,.542.225.732.732,0,0,1,.243.56.944.944,0,0,1-.074.337l-8,23.995a1.692,1.692,0,0,1-.486.748,1.366,1.366,0,0,1-.936.3h-4.1Z" transform="translate(-556.002 -21.531)" fill="#e3e8ea"/>
      <path id="Path_485" data-name="Path 485" d="M897.038,52.584a.91.91,0,0,0-.673-.262H880.782a2.057,2.057,0,0,0-2.057,2.057v1.345a.857.857,0,0,0,.262.638.869.869,0,0,0,.633.262h16.746a.912.912,0,0,0,.673-.262.869.869,0,0,0,.262-.638V53.257a.924.924,0,0,0-.262-.673Zm-.3-18.088a.869.869,0,0,0,.262-.633V31.391a.912.912,0,0,0-.262-.673.9.9,0,0,0-.673-.259H879.618a.855.855,0,0,0-.631.262.9.9,0,0,0-.262.673V32.7a2.057,2.057,0,0,0,2.057,2.057h15.283a.912.912,0,0,0,.673-.262m-.822,10.747a.854.854,0,0,0,.262-.656V42.266a.852.852,0,0,0-.262-.652.948.948,0,0,0-.673-.243h-14.46a2.057,2.057,0,1,0,0,4.113h14.461a.947.947,0,0,0,.674-.244Z" transform="translate(-621.302 -21.535)" fill="#e3e8ea"/>
    </g>
  </g>
</svg>
